<svg width="32" height="33" viewBox="0 0 32 33" fill="none" xmlns="http://www.w3.org/2000/svg">
<rect y="0.881348" width="32" height="32" rx="4" fill="white"/>
<g clip-path="url(#clip0_192_427)">
<path d="M22.6667 13.5482H18V12.2148H22.6667V13.5482ZM23.8173 20.2148C23.5227 21.0795 22.4647 22.2148 20.4167 22.2148C18.3673 22.2148 16.7073 21.0622 16.7073 18.4315C16.7073 15.8248 18.2573 14.4848 20.3513 14.4848C22.406 14.4848 23.6607 15.6728 23.9347 17.4355C23.9867 17.7728 24.0073 18.2275 23.998 18.8622H18.6467C18.7333 21.0028 20.9687 21.0702 21.7053 20.2148H23.8173ZM18.6933 17.5482H22.0033C21.9333 16.5168 21.246 16.0688 20.352 16.0688C19.3747 16.0688 18.834 16.5808 18.6933 17.5482ZM12.3107 22.2068H8V12.2288H12.6353C16.286 12.2828 16.3553 15.8582 14.4487 16.8328C16.756 17.6728 16.8333 22.2068 12.3107 22.2068V22.2068ZM10 16.2148H12.3893C14.0613 16.2148 14.3267 14.2148 12.1813 14.2148H10V16.2148ZM12.2607 18.2148H10V20.2255H12.2273C14.264 20.2255 14.1393 18.2148 12.2607 18.2148V18.2148Z" fill="#333333"/>
</g>
<defs>
<clipPath id="clip0_192_427">
<rect width="16" height="16" fill="white" transform="translate(8 8.88135)"/>
</clipPath>
</defs>
</svg>
