<svg width="82" height="83" viewBox="0 0 82 83" fill="none" xmlns="http://www.w3.org/2000/svg">
<g filter="url(#filter0_d_192_411)">
<rect x="25" y="22.8813" width="32" height="32" rx="4" fill="white"/>
<path d="M40.9942 36.7943C39.8473 36.7943 38.9114 37.7302 38.9114 38.8771C38.9114 40.024 39.8473 40.9599 40.9942 40.9599C42.1411 40.9599 43.077 40.024 43.077 38.8771C43.077 37.7302 42.1411 36.7943 40.9942 36.7943ZM47.2411 38.8771C47.2411 38.0146 47.2489 37.1599 47.2005 36.299C47.152 35.299 46.9239 34.4115 46.1927 33.6802C45.4598 32.9474 44.5739 32.7209 43.5739 32.6724C42.7114 32.624 41.8567 32.6318 40.9958 32.6318C40.1333 32.6318 39.2786 32.624 38.4177 32.6724C37.4177 32.7209 36.5302 32.949 35.7989 33.6802C35.0661 34.4131 34.8395 35.299 34.7911 36.299C34.7427 37.1615 34.7505 38.0162 34.7505 38.8771C34.7505 39.7381 34.7427 40.5943 34.7911 41.4552C34.8395 42.4552 35.0677 43.3427 35.7989 44.074C36.5317 44.8068 37.4177 45.0334 38.4177 45.0818C39.2802 45.1302 40.1348 45.1224 40.9958 45.1224C41.8583 45.1224 42.713 45.1302 43.5739 45.0818C44.5739 45.0334 45.4614 44.8052 46.1927 44.074C46.9255 43.3412 47.152 42.4552 47.2005 41.4552C47.2505 40.5943 47.2411 39.7396 47.2411 38.8771V38.8771ZM40.9942 42.0818C39.2208 42.0818 37.7895 40.6506 37.7895 38.8771C37.7895 37.1037 39.2208 35.6724 40.9942 35.6724C42.7677 35.6724 44.1989 37.1037 44.1989 38.8771C44.1989 40.6506 42.7677 42.0818 40.9942 42.0818ZM44.3302 36.2896C43.9161 36.2896 43.5817 35.9552 43.5817 35.5412C43.5817 35.1271 43.9161 34.7927 44.3302 34.7927C44.7442 34.7927 45.0786 35.1271 45.0786 35.5412C45.0787 35.6395 45.0594 35.7369 45.0219 35.8277C44.9843 35.9186 44.9292 36.0012 44.8597 36.0707C44.7901 36.1402 44.7076 36.1953 44.6167 36.2329C44.5259 36.2705 44.4285 36.2897 44.3302 36.2896V36.2896Z" fill="#333333"/>
</g>
<defs>
<filter id="filter0_d_192_411" x="0" y="0.881348" width="82" height="82" filterUnits="userSpaceOnUse" color-interpolation-filters="sRGB">
<feFlood flood-opacity="0" result="BackgroundImageFix"/>
<feColorMatrix in="SourceAlpha" type="matrix" values="0 0 0 0 0 0 0 0 0 0 0 0 0 0 0 0 0 0 127 0" result="hardAlpha"/>
<feOffset dy="3"/>
<feGaussianBlur stdDeviation="12.5"/>
<feComposite in2="hardAlpha" operator="out"/>
<feColorMatrix type="matrix" values="0 0 0 0 0.9125 0 0 0 0 0.9125 0 0 0 0 0.9125 0 0 0 1 0"/>
<feBlend mode="normal" in2="BackgroundImageFix" result="effect1_dropShadow_192_411"/>
<feBlend mode="normal" in="SourceGraphic" in2="effect1_dropShadow_192_411" result="shape"/>
</filter>
</defs>
</svg>
