<svg width="32" height="33" viewBox="0 0 32 33" fill="none" xmlns="http://www.w3.org/2000/svg">
<rect y="0.881348" width="32" height="32" rx="4" fill="white"/>
<g clip-path="url(#clip0_192_416)">
<path d="M12.134 22.8813H9.2315V13.5343H12.134V22.8813ZM10.681 12.2593C9.753 12.2593 9 11.4903 9 10.5623C9 10.1165 9.1771 9.68895 9.49235 9.3737C9.8076 9.05845 10.2352 8.88135 10.681 8.88135C11.1268 8.88135 11.5544 9.05845 11.8696 9.3737C12.1849 9.68895 12.362 10.1165 12.362 10.5623C12.362 11.4903 11.609 12.2593 10.681 12.2593ZM22.997 22.8813H20.101V18.3313C20.101 17.2468 20.079 15.8563 18.592 15.8563C17.083 15.8563 16.8515 17.0343 16.8515 18.2533V22.8813H13.952V13.5343H16.7355V14.8093H16.776C17.1635 14.0748 18.11 13.2998 19.522 13.2998C22.4595 13.2998 22.9995 15.2343 22.9995 17.7468V22.8813H22.997Z" fill="#333333"/>
</g>
<defs>
<clipPath id="clip0_192_416">
<rect width="16" height="16" fill="white" transform="translate(8 8.88135)"/>
</clipPath>
</defs>
</svg>
