<svg width="32" height="33" viewBox="0 0 32 33" fill="none" xmlns="http://www.w3.org/2000/svg">
<rect y="0.881348" width="32" height="32" rx="4" fill="white"/>
<path d="M23.762 12.1726C23.2053 12.4192 22.6073 12.5859 21.9787 12.6612C22.6273 12.2731 23.1126 11.6622 23.344 10.9426C22.7346 11.3046 22.0676 11.5594 21.372 11.6959C20.9043 11.1965 20.2847 10.8655 19.6095 10.7542C18.9344 10.643 18.2414 10.7578 17.6382 11.0807C17.0349 11.4037 16.5552 11.9168 16.2734 12.5404C15.9917 13.1639 15.9237 13.8631 16.08 14.5292C14.8451 14.4672 13.6371 14.1463 12.5343 13.5872C11.4315 13.0281 10.4586 12.2433 9.67866 11.2839C9.412 11.7439 9.25866 12.2772 9.25866 12.8452C9.25837 13.3566 9.38429 13.8601 9.62525 14.3111C9.86621 14.7621 10.2148 15.1466 10.64 15.4306C10.1468 15.4149 9.66458 15.2816 9.23333 15.0419V15.0819C9.23328 15.7991 9.48135 16.4942 9.93545 17.0492C10.3896 17.6043 11.0217 17.9852 11.7247 18.1272C11.2672 18.251 10.7876 18.2693 10.322 18.1806C10.5203 18.7976 10.9067 19.3373 11.4269 19.7239C11.9472 20.1105 12.5753 20.3247 13.2233 20.3366C12.1232 21.2002 10.7646 21.6686 9.366 21.6666C9.11825 21.6666 8.87072 21.6522 8.62466 21.6232C10.0443 22.536 11.6969 23.0204 13.3847 23.0186C19.098 23.0186 22.2213 18.2866 22.2213 14.1826C22.2213 14.0492 22.218 13.9146 22.212 13.7812C22.8195 13.3419 23.3439 12.7978 23.7607 12.1746L23.762 12.1726V12.1726Z" fill="#333333"/>
</svg>
