<svg width="32" height="33" viewBox="0 0 32 33" fill="none" xmlns="http://www.w3.org/2000/svg">
<rect y="0.881348" width="32" height="32" rx="4" fill="white"/>
<path d="M22.7078 13.5079C22.6281 13.2111 22.4719 12.9404 22.2547 12.723C22.0375 12.5055 21.767 12.3489 21.4703 12.2688C20.3781 11.9751 16 11.9751 16 11.9751C16 11.9751 11.6219 11.9751 10.5297 12.2673C10.2328 12.3471 9.96223 12.5036 9.74501 12.7211C9.52779 12.9386 9.37162 13.2094 9.29219 13.5063C9 14.6001 9 16.8813 9 16.8813C9 16.8813 9 19.1626 9.29219 20.2548C9.45312 20.8579 9.92812 21.3329 10.5297 21.4938C11.6219 21.7876 16 21.7876 16 21.7876C16 21.7876 20.3781 21.7876 21.4703 21.4938C22.0734 21.3329 22.5469 20.8579 22.7078 20.2548C23 19.1626 23 16.8813 23 16.8813C23 16.8813 23 14.6001 22.7078 13.5079ZM14.6094 18.9751V14.7876L18.2344 16.8657L14.6094 18.9751Z" fill="#333333"/>
</svg>
